<svg xmlns="http://www.w3.org/2000/svg" width="32.813" height="37.44" viewBox="0 0 32.813 37.44">
  <defs>
    <style>
      .cls-11 {
        fill-rule: evenodd;
        opacity: 0.2;
      }
    </style>
  </defs>
  <path id="Forma_1" data-name="Forma 1" class="cls-11" d="M91.648,4126.91a0.587,0.587,0,0,0,.554-0.72,11.242,11.242,0,0,0-10.3-9.83,0.573,0.573,0,0,0-.733.5v9.35a0.681,0.681,0,0,0,.684.7h9.8Zm2.5-9.72,0.744-.76a0.227,0.227,0,0,1,.169-0.06c0.237-.02.5-0.05,0.8-0.1,1.087-.21.539-1.42-0.561-2.55s-2.3-1.68-2.489-.57c-0.056.34-.08,0.57-0.1,0.82a0.168,0.168,0,0,1-.052.13l-0.717.73a0.191,0.191,0,0,1-.308-0.01,16.212,16.212,0,0,0-7.937-3.66,0.2,0.2,0,0,1-.22-0.18v-0.45a0.184,0.184,0,0,1,.125-0.17,4.728,4.728,0,0,0,1.657-1.34c1.049-1.23-1.828-2.01-4.082-2.01s-5.13.77-4.082,2.01a4.718,4.718,0,0,0,1.6,1.31,0.2,0.2,0,0,1,.155.21v0.41a0.216,0.216,0,0,1-.211.21,16.249,16.249,0,0,0-9.7,5.38,16.881,16.881,0,0,0-4.178,11.16,16.393,16.393,0,0,0,32.752,1.34c0.034-.44.052-0.89,0.052-1.34a16.87,16.87,0,0,0-3.409-10.21A0.207,0.207,0,0,1,94.153,4117.19Zm0.246,11.84a13.287,13.287,0,0,1-26.53-1.33,13.713,13.713,0,0,1,3.387-9.05,13.165,13.165,0,0,1,9.909-4.52,13.438,13.438,0,0,1,13.3,13.57C94.462,4128.15,94.441,4128.59,94.4,4129.03Z" transform="translate(-64.75 -4107)"/>
</svg>
