<svg xmlns="http://www.w3.org/2000/svg" xmlns:xlink="http://www.w3.org/1999/xlink" width="48" height="48" viewBox="0 0 48 48">
  <defs>
    <style>
      .cls-1 {
        fill: #262626;
        fill-rule: evenodd;
        filter: url(#filter);
      }
    </style>
    <filter id="filter" x="219" y="345" width="48" height="48" filterUnits="userSpaceOnUse">
      <feFlood result="flood" flood-color="#669cd6"/>
      <feComposite result="composite" operator="in" in2="SourceGraphic"/>
      <feBlend result="blend" in2="SourceGraphic"/>
    </filter>
  </defs>
  <path id="setting" class="cls-1" d="M243,361.5a7.5,7.5,0,1,1-7.5,7.5A7.5,7.5,0,0,1,243,361.5Zm0,3a4.5,4.5,0,1,1-4.5,4.5A4.5,4.5,0,0,1,243,364.5Zm1.313-16.5a2.625,2.625,0,0,1,2.625,2.625l0.642,1.953a16.865,16.865,0,0,1,3.806,1.573l1.826-.928a3.364,3.364,0,0,1,2.045-1.026,2.526,2.526,0,0,1,1.667,1.026l1.857,1.857a2.628,2.628,0,0,1,0,3.715l-0.925,1.828a16.947,16.947,0,0,1,1.572,3.805l1.952,0.639a2.625,2.625,0,0,1,2.625,2.625v2.626a2.624,2.624,0,0,1-2.625,2.625l-1.953.642a16.938,16.938,0,0,1-1.573,3.806l0.927,1.827a2.626,2.626,0,0,1,0,3.713l-1.857,1.856a2.624,2.624,0,0,1-3.712,0l-1.83-.926a16.86,16.86,0,0,1-3.787,1.567l-0.657,1.959a2.624,2.624,0,0,1-2.625,2.623h-2.626a2.624,2.624,0,0,1-2.625-2.623l-0.657-1.959a16.893,16.893,0,0,1-3.774-1.558l-1.842.917a2.625,2.625,0,0,1-3.713,0l-1.857-1.856a2.626,2.626,0,0,1,0-3.713l0.917-1.844a17.018,17.018,0,0,1-1.559-3.774l-1.956-.657A2.625,2.625,0,0,1,222,370.313v-2.626a2.626,2.626,0,0,1,2.626-2.625l1.956-.657a16.924,16.924,0,0,1,1.559-3.774l-0.917-1.841a2.628,2.628,0,0,1,0-3.715l1.857-1.857a2.618,2.618,0,0,1,1.856-.768,2.042,2.042,0,0,1,1.7.522L234.5,353.9a17.168,17.168,0,0,1,3.853-1.589l0.709-1.695A2.625,2.625,0,0,1,241.687,348h2.626m0.02-3h-2.666a5.34,5.34,0,0,0-5.311,4.839l-0.114.35q-0.9.322-1.761,0.726l-0.341-.169a5.334,5.334,0,0,0-7.166.339l-1.887,1.887a5.335,5.335,0,0,0-.34,7.17l0.168,0.339c-0.268.569-.509,1.155-0.724,1.753l-0.364.123a5.341,5.341,0,0,0-4.827,5.31v2.666a5.341,5.341,0,0,0,4.827,5.31l0.365,0.123c0.214,0.6.456,1.185,0.723,1.753l-0.169.342a5.334,5.334,0,0,0,.341,7.168l1.886,1.885a5.332,5.332,0,0,0,7.168.341l0.34-.169c0.57,0.268,1.156.509,1.753,0.723l0.123,0.367a5.341,5.341,0,0,0,5.31,4.824h2.666a5.341,5.341,0,0,0,5.31-4.824l0.123-.367q0.9-.323,1.757-0.726l0.329,0.166a5.331,5.331,0,0,0,7.175-.335l1.886-1.885a5.336,5.336,0,0,0,.333-7.179l-0.165-.324q0.406-.861.729-1.767l0.353-.116a5.339,5.339,0,0,0,4.837-5.31v-2.666a5.342,5.342,0,0,0-4.839-5.311l-0.351-.115q-0.322-.9-0.728-1.766l0.165-.325a5.338,5.338,0,0,0-.334-7.179l-1.886-1.884a5.335,5.335,0,0,0-7.177-.334l-0.324.165q-0.861-.4-1.767-0.728l-0.116-.354a5.339,5.339,0,0,0-5.31-4.836h0Z" transform="translate(-219 -345)"/>
</svg>
