<svg xmlns="http://www.w3.org/2000/svg" width="29" height="29" viewBox="0 0 29 29">
  <defs>
    <style>
      .cls-1 {
        fill: #333;
        fill-rule: evenodd;
      }
    </style>
  </defs>
  <path id="Ic_Pen" class="cls-1" d="M609.608,662.569l-1.977,1.976a0.6,0.6,0,0,1-.842,0l-3.346-3.346a0.6,0.6,0,0,1,0-.845l1.977-1.977a1.341,1.341,0,0,1,1.9,0l2.291,2.294A1.344,1.344,0,0,1,609.608,662.569Zm-3.535,3.375-10.942,10.949a0.512,0.512,0,0,1-.842.161l-3.346-3.347a0.6,0.6,0,0,1,0-.845l10.942-10.948a0.6,0.6,0,0,1,.841,0l3.347,3.347C606.306,665.5,606.306,665.873,606.073,665.944Zm-12.8,12.5-4.748,1.626-0.088.031a0.446,0.446,0,0,1-.535-0.538l0.03-.086,1.626-4.75,0.03-.088a0.411,0.411,0,0,1,.088-0.129,0.449,0.449,0,0,1,.633,0l3.18,3.181a0.448,0.448,0,0,1,0,.632,0.42,0.42,0,0,1-.128.09ZM596.5,663H584v21h21V671.5a1.5,1.5,0,0,1,3,0v14a1.5,1.5,0,0,1-1.5,1.5h-24a1.5,1.5,0,0,1-1.5-1.5v-24a1.5,1.5,0,0,1,1.5-1.5h14A1.5,1.5,0,0,1,596.5,663Z" transform="translate(-581 -658)"/>
</svg>
