<svg xmlns="http://www.w3.org/2000/svg" width="47.938" height="48" viewBox="0 0 47.938 48">
  <defs>
    <style>
      .cls-1 {
        fill: #669cd6;
        fill-rule: evenodd;
      }
    </style>
  </defs>
  <path id="user" class="cls-1" d="M85.981,374.956c0-.106.072,4.079,0.072,4.079l1.474,0.785a25.991,25.991,0,0,0,6.913,2.221c2.236,0.386,4.762,1.158,6.46,5.444-0.1.1-2.605,2.518-20.889,2.518s-20.791-2.416-20.874-2.514c1.683-4.292,4.208-5.063,6.445-5.449a26.29,26.29,0,0,0,6.89-2.207l1.471-.773s0.1-4.183.094-4.08c3.348,0,11.807-.024,11.945-0.024m3.031-3.006-18,.026S71.04,376.7,71,377.2a23.047,23.047,0,0,1-5.96,1.892c-2.954.51-6.624,1.8-8.792,7.335a2.916,2.916,0,0,0,.36,2.8C58.831,392.345,70.562,393,80.01,393s21.18-.655,23.405-3.776a2.918,2.918,0,0,0,.361-2.8c-2.169-5.533-5.838-6.827-8.794-7.337a22.849,22.849,0,0,1-5.966-1.9c0-4.338-.1-3.654,0-5.244h0ZM80.023,348c6.993,0,10.5,6.044,10.5,13.5,0,6.1-4.7,13.5-10.5,13.5s-10.5-7.374-10.5-13.5C69.522,354.044,73.035,348,80.023,348Zm0-3C89,345,93.51,352.388,93.51,361.5c0,7.45-6.038,16.5-13.487,16.5s-13.487-9.013-13.487-16.5C66.537,352.388,71.048,345,80.023,345Zm0,3c6.993,0,10.5,6.044,10.5,13.5,0,6.1-4.7,13.5-10.5,13.5s-10.5-7.374-10.5-13.5C69.522,354.044,73.035,348,80.023,348Z" transform="translate(-56.031 -345)"/>
</svg>
