<svg xmlns="http://www.w3.org/2000/svg" width="32.062" height="19.812" viewBox="0 0 32.062 19.812">
  <defs>
    <style>
      .cls-1 {
        fill: #fff;
        fill-rule: evenodd;
      }
    </style>
  </defs>
  <path id="Фигура_1_copy_5" data-name="Фигура 1 copy 5" class="cls-1" d="M262.661,999.726h1.917a1.559,1.559,0,0,0,.875-0.415,1.622,1.622,0,0,0,.263-0.912s-0.038-2.787,1.156-3.2c1.176-.4,2.687,2.694,4.289,3.885a2.861,2.861,0,0,0,2.131.7l4.282-.064s2.24-.151,1.178-2.059a15.335,15.335,0,0,0-3.184-3.992c-2.685-2.7-2.326-2.264.909-6.936,1.97-2.845,2.757-4.581,2.511-5.325-0.235-.71-1.683-0.522-1.683-0.522l-4.822.033a1.02,1.02,0,0,0-.622.118,1.453,1.453,0,0,0-.426.561,31.468,31.468,0,0,1-1.781,4.073c-2.146,3.951-3,4.161-3.356,3.915-0.816-.572-0.612-2.3-0.612-3.522,0-3.829.536-5.425-1.044-5.839a7.621,7.621,0,0,0-2.25-.242,9.659,9.659,0,0,0-4,.443c-0.548.291-.971,0.94-0.713,0.977a2.1,2.1,0,0,1,1.422.775,5.41,5.41,0,0,1,.477,2.364s0.284,4.507-.663,5.067c-0.65.385-1.541-.4-3.455-3.984a34.579,34.579,0,0,1-1.721-3.865,1.553,1.553,0,0,0-.4-0.582,1.91,1.91,0,0,0-.74-0.325l-4.582.033a1.481,1.481,0,0,0-.94.345,1.162,1.162,0,0,0-.018.884s3.587,9.1,7.648,13.678C258.433,1000,262.661,999.726,262.661,999.726Z" transform="translate(-246.969 -980)"/>
</svg>
