<svg xmlns="http://www.w3.org/2000/svg" width="119.219" height="19" viewBox="0 0 119.219 19">
  <defs>
    <style>
      .cls-1 {
        fill: #ffa115;
        fill-rule: evenodd;
      }
    </style>
  </defs>
  <path id="star_copy_4" data-name="star copy 4" class="cls-1" d="M142.941,366.682a1.055,1.055,0,0,0-.856-0.717l-5.631-.812-2.518-5.063a1.063,1.063,0,0,0-1.9,0l-2.52,5.065-5.631.812a1.055,1.055,0,0,0-.855.717,1.04,1.04,0,0,0,.268,1.079l4.075,3.942-0.962,5.567a1.054,1.054,0,0,0,.421,1.028,1.082,1.082,0,0,0,1.118.081l5.036-2.629,5.037,2.629a1.065,1.065,0,0,0,.492.121h0a1.067,1.067,0,0,0,.624-0.2,1.055,1.055,0,0,0,.422-1.029L138.6,371.7l4.075-3.942A1.042,1.042,0,0,0,142.941,366.682Zm-24.568,0a1.055,1.055,0,0,0-.856-0.717l-5.631-.812-2.519-5.063a1.063,1.063,0,0,0-1.9,0l-2.519,5.065-5.631.812a1.055,1.055,0,0,0-.856.717,1.042,1.042,0,0,0,.269,1.079L102.8,371.7l-0.962,5.567a1.054,1.054,0,0,0,.421,1.028,1.08,1.08,0,0,0,1.117.081l5.037-2.629,5.036,2.629a1.072,1.072,0,0,0,.493.121h0a1.056,1.056,0,0,0,1.045-1.23l-0.962-5.567,4.075-3.942A1.043,1.043,0,0,0,118.373,366.682Zm-24.569,0a1.055,1.055,0,0,0-.856-0.717l-5.631-.812L84.8,360.09a1.063,1.063,0,0,0-1.9,0l-2.519,5.065-5.631.812a1.055,1.055,0,0,0-.856.717,1.042,1.042,0,0,0,.268,1.079l4.075,3.942-0.962,5.567a1.053,1.053,0,0,0,.421,1.028,1.081,1.081,0,0,0,1.117.081l5.037-2.629,5.037,2.629a1.069,1.069,0,0,0,.493.121h0a1.056,1.056,0,0,0,1.045-1.23L89.461,371.7l4.075-3.942A1.042,1.042,0,0,0,93.8,366.682Zm-24.568,0a1.055,1.055,0,0,0-.856-0.717l-5.631-.812L60.23,360.09a1.063,1.063,0,0,0-1.9,0l-2.519,5.065-5.631.812a1.055,1.055,0,0,0-.856.717,1.042,1.042,0,0,0,.268,1.079l4.075,3.942L52.7,377.27a1.053,1.053,0,0,0,.421,1.028,1.081,1.081,0,0,0,1.117.081l5.037-2.629,5.036,2.629a1.069,1.069,0,0,0,.493.121h0a1.056,1.056,0,0,0,1.045-1.23L64.892,371.7l4.075-3.942A1.042,1.042,0,0,0,69.236,366.682Zm-25.478,0a1.055,1.055,0,0,0-.856-0.717l-5.631-.812-2.519-5.063a1.063,1.063,0,0,0-1.9,0l-2.519,5.065-5.631.812a1.055,1.055,0,0,0-.856.717,1.042,1.042,0,0,0,.268,1.079l4.075,3.942-0.962,5.567a1.053,1.053,0,0,0,.421,1.028,1.081,1.081,0,0,0,1.117.081L33.8,375.75l5.037,2.629a1.069,1.069,0,0,0,.492.121h0a1.056,1.056,0,0,0,1.045-1.23L39.414,371.7l4.075-3.942A1.042,1.042,0,0,0,43.758,366.682Z" transform="translate(-23.781 -359.5)"/>
</svg>
