<svg xmlns="http://www.w3.org/2000/svg" width="29" height="32" viewBox="0 0 29 32">
  <defs>
    <style>
      .cls-11 {
        fill-rule: evenodd;
        opacity: 0.15;
      }
    </style>
  </defs>
  <path id="_62" data-name="62" class="cls-11" d="M305.5,600.5A14.5,14.5,0,1,0,321,586.038V585h2a1,1,0,0,0,0-2h-6a1,1,0,0,0,0,2h2v1.038A14.5,14.5,0,0,0,305.5,600.5Zm26.957-1H331.5a1,1,0,0,0,0,2h0.957a12.377,12.377,0,0,1-2.95,7.111,1.117,1.117,0,0,0-.082-0.1l-1.415-1.415a1,1,0,0,0-1.414,1.414l1.414,1.415a0.882,0.882,0,0,0,.1.082,12.377,12.377,0,0,1-7.111,2.95V611.5a1,1,0,0,0-2,0v1.457a12.377,12.377,0,0,1-7.111-2.95,1.1,1.1,0,0,0,.1-0.082l1.414-1.415a1,1,0,0,0-1.414-1.414l-1.415,1.415a1.117,1.117,0,0,0-.082.1,12.377,12.377,0,0,1-2.95-7.111H308.5a1,1,0,0,0,0-2h-0.957a12.377,12.377,0,0,1,2.95-7.111,1.13,1.13,0,0,0,.082.1l1.415,1.414a1,1,0,0,0,1.414-1.414l-1.414-1.414c-0.032-.031-0.067-0.056-0.1-0.083a12.383,12.383,0,0,1,7.111-2.95V589a1,1,0,0,0,2,0v-0.957a12.377,12.377,0,0,1,7.111,2.95c-0.034.027-.069,0.052-0.1,0.083L326.6,592.49a1,1,0,1,0,1.414,1.414l1.414-1.414a0.989,0.989,0,0,0,.083-0.1A12.377,12.377,0,0,1,332.461,599.5ZM321,598.778V594.5a1,1,0,0,0-2,0v4.278A2,2,0,1,0,321,598.778Z" transform="translate(-305.5 -583)"/>
</svg>
