<svg xmlns="http://www.w3.org/2000/svg" width="55" height="32" viewBox="0 0 55 32">
  <defs>
    <style>
      .cls-1 {
        fill: #fff;
        fill-rule: evenodd;
      }
    </style>
  </defs>
  <path id="Forma_1" data-name="Forma 1" class="cls-1" d="M496.005,1458.76a5.105,5.105,0,0,0-2.058-4.01,5.557,5.557,0,0,0-4.4-1c-3.091-4.53-8.272-11.66-20.9-11.76h-0.291c-12.627.1-17.808,7.23-20.9,11.76a5.557,5.557,0,0,0-4.4,1,5.108,5.108,0,0,0-2.058,4.01c0,2.56,2.086,4.08,4.457,4.48l4.167,7.16a0.77,0.77,0,0,0,.665.39h1.154a0.752,0.752,0,0,0,.059.21l1.093,2.53a0.777,0.777,0,0,0,.706.47h29.857a0.772,0.772,0,0,0,.669-0.39l1.435-2.53a0.729,0.729,0,0,0,.1-0.29h1.524a0.77,0.77,0,0,0,.665-0.39l4.186-7.2C494.026,1462.76,496.005,1461.26,496.005,1458.76Zm-9.567,10.49h-4.769a0.77,0.77,0,0,0,0,1.54h1.992l-0.95,1.67H453.806l-0.724-1.67h28.581a0.77,0.77,0,0,0,0-1.54H450.731l-3.443-5.92a12.6,12.6,0,0,0,7.154-2.44c0.871,0.95,2.869,2.45,6.78,2.45a11.048,11.048,0,0,0,7.28-2.3,11.088,11.088,0,0,0,7.281,2.3c3.912,0,5.909-1.5,6.78-2.45a12.566,12.566,0,0,0,7.315,2.44Zm3.863-7.45a10.862,10.862,0,0,1-7.309-2.55,0.771,0.771,0,0,0-1.228.18c-0.013.02-1.306,2.37-5.981,2.37a9.4,9.4,0,0,1-6.41-2.04c-0.055-.05-0.3-0.32-0.39-0.39a0.758,0.758,0,0,0-1.081.12c-0.018.02-1.912,2.31-6.68,2.31-4.6,0-5.931-2.28-5.981-2.37a0.772,0.772,0,0,0-1.229-.18,10.753,10.753,0,0,1-7.309,2.55c-1.441,0-4.166-.63-4.166-3.04a3.572,3.572,0,0,1,1.45-2.79,4.071,4.071,0,0,1,3.6-.62,0.764,0.764,0,0,0,.841-0.3l0.064-.1c3.094-4.53,7.764-11.38,20.008-11.42,12.243,0.04,16.913,6.89,20.006,11.42l0.064,0.1a0.766,0.766,0,0,0,.841.3,4.073,4.073,0,0,1,3.6.62,3.572,3.572,0,0,1,1.45,2.79C494.468,1461.17,491.742,1461.8,490.3,1461.8Zm-21.8-15.66c-1.522,0-2.2,2.51-2.2,5.01s0.682,5,2.2,5,2.2-2.51,2.2-5S470.025,1446.14,468.5,1446.14Zm0,8.38a8.885,8.885,0,0,1,0-6.75A8.885,8.885,0,0,1,468.5,1454.52Zm-6.676-7.73a1.324,1.324,0,0,0-.653-0.17c-1.317,0-2.834,1.85-3.732,3.44a10.437,10.437,0,0,0-1.2,3.05c-0.289,1.51.192,2.13,0.646,2.39a1.328,1.328,0,0,0,.654.17c1.317,0,2.833-1.85,3.731-3.44a10.47,10.47,0,0,0,1.2-3.05C462.763,1447.67,462.282,1447.05,461.827,1446.79Zm-1.889,4.68a6.786,6.786,0,0,1-2.242,2.61,8.891,8.891,0,0,1,3.326-5.87A6.764,6.764,0,0,1,459.938,1451.47Zm19.476-1.41c-0.9-1.59-2.415-3.44-3.732-3.44a1.321,1.321,0,0,0-.653.17c-1.325.75-.678,3.27,0.551,5.44,0.9,1.59,2.414,3.44,3.731,3.44h0a1.321,1.321,0,0,0,.653-0.17c0.469-.27.958-0.92,0.627-2.5A10.644,10.644,0,0,0,479.414,1450.06Zm-0.257,4.02a6.848,6.848,0,0,1-2.24-2.61,6.77,6.77,0,0,1-1.083-3.26,6.794,6.794,0,0,1,2.242,2.61,9.006,9.006,0,0,1,1.01,2.5A2.7,2.7,0,0,1,479.157,1454.08Z" transform="translate(-441 -1442)"/>
</svg>
