<svg xmlns="http://www.w3.org/2000/svg" width="53" height="47" viewBox="0 0 53 47">
  <defs>
    <style>
      .cls-1 {
        fill: #fff;
        fill-rule: evenodd;
      }
    </style>
  </defs>
  <path class="cls-1" d="M489.709,1222.65,465.722,1247c-0.7,0-1.423-.02-2.177-0.07-8.118-.53-15.1-7.4-17.051-9.49-3.979-4.28-5.562-12.83-3.765-20.32,1.738-7.25,9.447-12.82,9.774-13.06a25.223,25.223,0,0,1,11.036-3.89c3.7-.27,4.2-0.21,5.929.12,0.574,0.12,1.306.26,2.4,0.43,4.352,0.66,10.535,5.56,10.8,5.76a2.069,2.069,0,0,1,.058,3.24l-0.9.77a2.758,2.758,0,0,1-3.453.06l-1.863-1.51a10.314,10.314,0,0,0-2.583-1.45l-3.2-1.13a10.767,10.767,0,0,0-2.923-.5h-3.421a10.754,10.754,0,0,0-2.923.5l-3.2,1.13a10.308,10.308,0,0,0-2.582,1.45l-0.938-1.15a12.074,12.074,0,0,1,3.025-1.7l3.206-1.12a12.037,12.037,0,0,1,3.417-.59H467.8a12.049,12.049,0,0,1,3.417.59l3.2,1.13a11.727,11.727,0,0,1,3.026,1.69l1.863,1.51a1.262,1.262,0,0,0,1.541-.03l0.9-.77a0.647,0.647,0,0,0,.242-0.49,0.629,0.629,0,0,0-.258-0.47c-0.057-.05-6.13-4.86-10.088-5.46-1.126-.17-1.876-0.32-2.464-0.43-1.578-.31-1.906-0.37-5.536-0.1a23.913,23.913,0,0,0-10.244,3.59c-0.112.08-7.622,5.52-9.229,12.22-1.691,7.05-.257,15.03,3.409,18.97,1.853,1.99,8.488,8.52,16.058,9.02a24.217,24.217,0,0,0,12.469-2.11c2.041-1.02,8.253-4.14,10.8-10.79,1.974-5.16,2.021-6.72,2-7.05l-0.119-.14,0.062-.34a14.791,14.791,0,0,0,.2-1.51,3.815,3.815,0,0,0-.957-0.08l-1.255.02a4.648,4.648,0,0,0-.831.09,16.82,16.82,0,0,1-.23,1.74l-0.577,3.17a11.473,11.473,0,0,1-1.219,3.24l-1.673,2.8a11.531,11.531,0,0,1-2.27,2.62l-2.588,2.1a11.793,11.793,0,0,1-3.026,1.69l-3.2,1.13a12.043,12.043,0,0,1-3.417.59h-3.421a12.031,12.031,0,0,1-3.417-.59l-3.2-1.13a11.793,11.793,0,0,1-3.026-1.69l-2.589-2.1a11.58,11.58,0,0,1-2.27-2.62l-1.672-2.8a11.473,11.473,0,0,1-1.219-3.24l-0.577-3.17a11.276,11.276,0,0,1,0-3.46l0.577-3.17a11.473,11.473,0,0,1,1.219-3.24l1.277,0.76a9.959,9.959,0,0,0-1.034,2.75l-0.577,3.16a9.922,9.922,0,0,0,0,2.94l0.577,3.16a9.927,9.927,0,0,0,1.034,2.75l1.672,2.8a10.163,10.163,0,0,0,1.931,2.23l2.589,2.1a10.667,10.667,0,0,0,2.582,1.45l3.2,1.12a10.378,10.378,0,0,0,2.923.5H467.8a10.384,10.384,0,0,0,2.923-.5l3.2-1.12a10.692,10.692,0,0,0,2.583-1.45l2.588-2.1a10.133,10.133,0,0,0,1.93-2.23l1.673-2.8a9.9,9.9,0,0,0,1.034-2.75l0.577-3.16a11.157,11.157,0,0,0,.215-1.77,0.848,0.848,0,0,1,.19-0.67,3.063,3.063,0,0,1,2.087-.61l1.254-.03c0.857-.01,2.291.1,2.46,1.03a9.487,9.487,0,0,1-.181,2.15c0.228,1.14-.456,3.81-2.042,7.95-1.826,4.78-5.7,8.68-11.52,11.59A24.707,24.707,0,0,1,465.722,1247Zm8.511-25.61a1.332,1.332,0,0,1-1.424-.77,1.375,1.375,0,0,1,.6-1.56l13.632-11.88h0l0.178-.15a2.139,2.139,0,0,1,3.2.49l2.734,4.49a11.192,11.192,0,0,1,1.234,3.25l0.572,3.15a2.091,2.091,0,0,1-2.051,2.51l-1.136.03h-0.113l-1.527.03Zm12.189-11.7-11.715,10.2,15.636-.4-0.088-.22,1.288,0.19a0.914,0.914,0,0,0,.165.01l1.158-.03a0.643,0.643,0,0,0,.51-0.22,0.688,0.688,0,0,0,.119-0.55l-0.573-3.15a9.845,9.845,0,0,0-1.042-2.74l-2.734-4.49a0.6,0.6,0,0,0-.952-0.14l-0.9.82-0.808.88ZM467.8,1242.6h-3.418a12.029,12.029,0,0,1-3.414-.59l-3.2-1.12a12.011,12.011,0,0,1-3.023-1.69l-2.586-2.1a11.572,11.572,0,0,1-2.268-2.62l-1.67-2.8a11.357,11.357,0,0,1-1.218-3.24l-0.577-3.16a11.339,11.339,0,0,1,0-3.46l0.577-3.16a11.357,11.357,0,0,1,1.218-3.24l1.67-2.8a11.547,11.547,0,0,1,2.268-2.62l2.586-2.1a12.081,12.081,0,0,1,3.023-1.69l3.2-1.13a12.366,12.366,0,0,1,3.414-.58H467.8a12.366,12.366,0,0,1,3.414.58l3.2,1.13a12.011,12.011,0,0,1,3.023,1.69l1.861,1.51a2.063,2.063,0,0,1,.053,3.23l-11.224,9.73,15.553-.33c1.405,0,2.176.33,2.294,0.98a10.637,10.637,0,0,1-.218,2.26l-0.576,3.16a11.357,11.357,0,0,1-1.218,3.24l-1.671,2.8a11.6,11.6,0,0,1-2.268,2.62l-2.586,2.1a12.04,12.04,0,0,1-3.022,1.69l-3.2,1.12A12.023,12.023,0,0,1,467.8,1242.6Zm-3.418-36.62a10.712,10.712,0,0,0-2.919.5l-3.2,1.13a10.632,10.632,0,0,0-2.579,1.44l-2.587,2.1a10.15,10.15,0,0,0-1.928,2.23l-1.67,2.8a10.016,10.016,0,0,0-1.034,2.74l-0.576,3.16a9.99,9.99,0,0,0,0,2.94l0.576,3.16a10.016,10.016,0,0,0,1.034,2.74l1.67,2.8a10.128,10.128,0,0,0,1.929,2.23l2.586,2.1a10.564,10.564,0,0,0,2.58,1.44l3.2,1.13a10.713,10.713,0,0,0,2.919.49H467.8a10.727,10.727,0,0,0,2.92-.49l3.2-1.13a10.6,10.6,0,0,0,2.58-1.44l2.586-2.1a10.177,10.177,0,0,0,1.928-2.23l1.671-2.8a9.981,9.981,0,0,0,1.033-2.74l0.576-3.16c0.108-.6.172-1.11,0.2-1.43a4.027,4.027,0,0,0-.814-0.07H483.56l-15.822.34h0a1.386,1.386,0,0,1-1.5-.78,1.363,1.363,0,0,1,.6-1.55l11.546-10.01a0.643,0.643,0,0,0,.242-0.48,0.631,0.631,0,0,0-.258-0.48l-1.862-1.51a10.558,10.558,0,0,0-2.579-1.44l-3.2-1.13a10.726,10.726,0,0,0-2.92-.5h-3.418Zm2.374,33.27a1.01,1.01,0,1,1,1.019-1.01A1.02,1.02,0,0,1,466.757,1239.25Zm-4.618-26.7a1.005,1.005,0,1,1,1.019-1A1.011,1.011,0,0,1,462.139,1212.55Zm16.681,17.46a1.005,1.005,0,1,1,1.019-1.01A1.013,1.013,0,0,1,478.82,1230.01Zm-25.429-12.71a1.01,1.01,0,1,1,1.019-1.01A1.013,1.013,0,0,1,453.391,1217.3Zm17.334,14.05a1.005,1.005,0,1,1,1.019-1.01A1.013,1.013,0,0,1,470.725,1231.35Zm-3.019-12.47a1.01,1.01,0,1,1,1.018-1.01A1.014,1.014,0,0,1,467.706,1218.88Zm-11.029,14.38a1.01,1.01,0,1,1,1.019-1.01A1.013,1.013,0,0,1,456.677,1233.26Zm5.187-9.1a1.01,1.01,0,1,1,1.018-1.01A1.013,1.013,0,0,1,461.864,1224.16Zm-9.023-.5a1.01,1.01,0,1,1,1.019-1.01A1.013,1.013,0,0,1,452.841,1223.66Zm17.787-10.81-1.267-.77,1.461-2.38,1.267,0.78Zm-6.853,24.01-1.906-2.05,1.091-1.01,1.906,2.06Zm0.952-6.59-1.9-2.06,1.091-1,1.906,2.05Zm10.932,3.39-0.854-1.21,2.312-1.62,0.854,1.22Zm-16.729-17.93-1.905-2.06,1.091-1.01,1.906,2.06Zm-4.415,12.56-0.666-1.33,2.535-1.27,0.667,1.33Zm26.877-9.83a1.043,1.043,0,0,1-.817-0.41,0.991,0.991,0,0,1-.188-0.76,1.009,1.009,0,0,1,.416-0.66,1.054,1.054,0,0,1,1.406.22,1,1,0,0,1,.188.76,1.037,1.037,0,0,1-.421.67A1.056,1.056,0,0,1,481.392,1218.46Zm4.351-1.16-1.45-.32,0.6-2.7,1.45,0.33Zm5.949,3.59a2.7,2.7,0,0,1-2.59-2.15l-0.325-1.79a9.786,9.786,0,0,0-1.033-2.71l-1.862-3.04a2.71,2.71,0,0,1,.52-3.38l0.84-.73a2.117,2.117,0,0,1,3.178.49l2.707,4.45a10.9,10.9,0,0,1,1.222,3.21l0.567,3.12a2.121,2.121,0,0,1-.424,1.73,2.16,2.16,0,0,1-1.613.77Zm-3.048-12.86a0.632,0.632,0,0,0-.425.18l-0.84.73a1.243,1.243,0,0,0-.229,1.49l1.863,3.04a11.052,11.052,0,0,1,1.226,3.22l0.325,1.78a1.2,1.2,0,0,0,1.128.94v0.74l0.024-.74,1.124-.03a0.693,0.693,0,0,0,.5-0.22,0.663,0.663,0,0,0,.116-0.54l-0.567-3.12a9.876,9.876,0,0,0-1.031-2.71l-2.706-4.44A0.59,0.59,0,0,0,488.644,1208.03Z" transform="translate(-442 -1200)"/>
</svg>
