<svg xmlns="http://www.w3.org/2000/svg" width="48" height="42" viewBox="0 0 48 42">
  <defs>
    <style>
      .cls-1 {
        fill: #fff;
        fill-rule: evenodd;
      }
    </style>
  </defs>
  <path id="Forma_1" data-name="Forma 1" class="cls-1" d="M159.613,1451.43a1.092,1.092,0,0,1-.766-0.31,1.129,1.129,0,0,1-.318-0.78,1.084,1.084,0,1,1,2.167,0,1.125,1.125,0,0,1-.318.78A1.089,1.089,0,0,1,159.613,1451.43Zm12.286,0a1.091,1.091,0,0,1-.765-0.31,1.125,1.125,0,0,1-.318-0.78,1.084,1.084,0,1,1,2.167,0,1.133,1.133,0,0,1-.317.78A1.094,1.094,0,0,1,171.9,1451.43Zm12.287,0a1.092,1.092,0,0,1-.766-0.31,1.129,1.129,0,0,1-.318-0.78,1.089,1.089,0,0,1,1.084-1.09,1.089,1.089,0,0,1,1.083,1.09,1.125,1.125,0,0,1-.318.78A1.084,1.084,0,0,1,184.186,1451.43Zm-18.109-5.5a1.059,1.059,0,0,1-.765-0.32,1.091,1.091,0,0,1,0-1.54,1.076,1.076,0,0,1,1.531,0,1.091,1.091,0,0,1,0,1.54A1.057,1.057,0,0,1,166.077,1445.93Zm11.644,0a1.061,1.061,0,0,1-.766-0.32,1.094,1.094,0,0,1,0-1.54,1.077,1.077,0,0,1,1.532,0,1.091,1.091,0,0,1,0,1.54A1.057,1.057,0,0,1,177.721,1445.93Zm15.372,23.78a4.159,4.159,0,0,0,.626-2.2,5.583,5.583,0,0,0-1.826-4.15,4.579,4.579,0,0,0,1.217-3.11,6.049,6.049,0,0,0-.945-3.25c2.089-.83,3.828-2.43,3.828-4.82,0-4.08-2.811-7.86-7.447-10.67a32.976,32.976,0,0,0-33.293,0c-4.636,2.81-7.254,6.59-7.254,10.67a5.148,5.148,0,0,0,3.635,4.82,6.049,6.049,0,0,0-.945,3.25,4.575,4.575,0,0,0,1.218,3.11,5.563,5.563,0,0,0-1.827,4.15,4.159,4.159,0,0,0,.626,2.2,3.9,3.9,0,0,0-2.643,4.05c0,2.89,2.074,5.23,4.622,5.23h38.429c2.549,0,4.622-2.34,4.622-5.23A3.9,3.9,0,0,0,193.093,1469.71Zm-40.237-9.46c0-1.32,1.066-2.85,2.376-2.85h33.335c1.31,0,2.376,1.53,2.376,2.85a2.345,2.345,0,0,1-.108.71,3.944,3.944,0,0,1-2.007-.96,6.246,6.246,0,0,0-7.807,0,3.9,3.9,0,0,1-5.217,0,6.246,6.246,0,0,0-7.807,0,3.9,3.9,0,0,1-5.217,0,6.247,6.247,0,0,0-7.808,0,3.948,3.948,0,0,1-2.008.96A2.345,2.345,0,0,1,152.856,1460.25Zm36.022,2.8c-0.1.01-.2,0.02-0.31,0.02h-8.58a24.772,24.772,0,0,0,2.328-1.32,3.873,3.873,0,0,1,5.217,0A9.84,9.84,0,0,0,188.878,1463.05Zm-12.217.02h-9.7a24.645,24.645,0,0,0,2.328-1.32,3.873,3.873,0,0,1,5.217,0A21.086,21.086,0,0,0,176.661,1463.07Zm-13.024,0h-8.405c-0.106,0-.21-0.01-0.312-0.02a9.8,9.8,0,0,0,1.347-1.3,3.875,3.875,0,0,1,5.218,0A21.086,21.086,0,0,0,163.637,1463.07Zm-9.407,1.98h35.339c1.094,0,1.983,1.35,1.983,2.46a2,2,0,0,1-1.983,2H154.23a2,2,0,0,1-1.983-2C152.247,1466.4,153.137,1465.05,154.23,1465.05Zm-4.321-12.87c0-3.28,2.5-6.4,6.459-8.79a29.273,29.273,0,0,1,31.063,0c3.958,2.39,6.652,5.51,6.652,8.79,0,1.92-2.391,3.26-4.3,3.26H154.34C152.428,1455.44,149.909,1454.1,149.909,1452.18Zm41.205,24.93H152.685c-1.354,0-2.455-1.67-2.455-3.35,0-.98.171-2.37,2.455-2.37h38.429c2.284,0,2.455,1.39,2.455,2.37C193.569,1475.44,192.468,1477.11,191.114,1477.11Z" transform="translate(-148 -1437)"/>
</svg>
