<svg xmlns="http://www.w3.org/2000/svg" width="36" height="48" viewBox="0 0 36 48">
  <defs>
    <style>
      .cls-1 {
        fill: #262626;
        fill-rule: evenodd;
      }
    </style>
  </defs>
  <path id="mark" class="cls-1" d="M400,393s18-18.346,18-30a18,18,0,0,0-36,0C382,374.867,400,393,400,393Zm0-4.5s15-15.5,15-25.313a15,15,0,1,0-30,0C385,373.1,400,388.5,400,388.5Zm0-31.5a6,6,0,1,1-6,6A6,6,0,0,1,400,357Zm0,3a3,3,0,1,1-3,3A3,3,0,0,1,400,360Z" transform="translate(-382 -345)"/>
</svg>
