<svg xmlns="http://www.w3.org/2000/svg" width="36.125" height="34.688" viewBox="0 0 36.125 34.688">
  <defs>
    <style>
      .cls-1 {
        fill: #80d666;
        fill-opacity: 0;
        stroke: #fff;
        stroke-linejoin: round;
        stroke-width: 2px;
        fill-rule: evenodd;
      }
    </style>
  </defs>
  <path class="cls-1" d="M166.377,354.4l-17.069,20.109L132.24,354.4h34.137Zm-20.764,14.119h7.537v14.12l-7.537,4.46v-18.58Zm-1.269,16.516h3V389h-3v-3.969Zm-12.344-31h2.719v2.094H132v-2.094ZM163.781,354H169v1.937h-5.219V354Zm-28.859.406a1.11,1.11,0,1,1-1.141,1.109A1.125,1.125,0,0,1,134.922,354.406Zm28.781,0a1.11,1.11,0,1,1-1.141,1.109A1.126,1.126,0,0,1,163.7,354.406ZM146.75,383.875A1.125,1.125,0,1,1,145.625,385,1.125,1.125,0,0,1,146.75,383.875Z" transform="translate(-131.25 -353.406)"/>
</svg>
