<svg xmlns="http://www.w3.org/2000/svg" width="49" height="40" viewBox="0 0 49 40">
  <defs>
    <style>
      .cls-1 {
        fill: #669cd6;
        fill-rule: evenodd;
      }
    </style>
  </defs>
  <path id="ico-cart" class="cls-1" d="M600.289,73.964H578.132l-0.443-.682-0.63.373L563.285,49.011H558V45h6.71l0.443,0.682,0.63-.374,3.7,6.776H607ZM571.808,55.971l7.749,14.044h17.964l4.194-14.044H571.808ZM580,79a3,3,0,1,1-3,3A3,3,0,0,1,580,79Zm16,0a3,3,0,1,1-3.01,3A3.006,3.006,0,0,1,596,79ZM557,44h3v6h-3V44Zm3,1a2,2,0,1,1-2,2A2,2,0,0,1,560,45Zm44,5h4v5h-4V50Zm0,2a2,2,0,0,1,2,2v1a2,2,0,1,1-4,0V54A2,2,0,0,1,604,52Z" transform="translate(-558 -45)"/>
</svg>
