<svg xmlns="http://www.w3.org/2000/svg" width="28" height="36" viewBox="0 0 28 36">
  <defs>
    <style>
      .cls-1 {
        fill: #dadada;
        fill-rule: evenodd;
      }
    </style>
  </defs>
  <path id="Ic_Pin" class="cls-1" d="M81.01,206.9a14,14,0,1,0-27.679,2.972l-0.01,0a31.7,31.7,0,0,0,12.258,18.641,2.429,2.429,0,0,0,2.64.163c0.153-.11.3-0.222,0.454-0.332a31.691,31.691,0,0,0,11.987-18.3l-0.01,0A13.78,13.78,0,0,0,81.01,206.9Zm-14-6.373A6.373,6.373,0,1,1,60.6,206.9,6.394,6.394,0,0,1,67.01,200.524Z" transform="translate(-53 -193)"/>
</svg>
