<svg xmlns="http://www.w3.org/2000/svg" width="72" height="32" viewBox="0 0 72 32">
  <defs>
    <style>
      .cls-2334 {
        fill-rule: evenodd;
        opacity: 0.15;
      }
    </style>
  </defs>
  <path id="IC_Mail" class="cls-2334" d="M338.4,160h-39.83a4.583,4.583,0,0,0-4.6,4.572v22.857a4.583,4.583,0,0,0,4.6,4.571H338.4a4.583,4.583,0,0,0,4.6-4.571V164.572A4.584,4.584,0,0,0,338.4,160Zm-38.3,3.048h36.766a3.057,3.057,0,0,1,1.237.263l-18.34,16.239a1.988,1.988,0,0,1-1.164.373,1.882,1.882,0,0,1-1.18-.416l-18.052-16.362A3.055,3.055,0,0,1,300.106,163.048Zm-3.063,3.047a3,3,0,0,1,.143-0.872l12.049,10.92-12.046,10.644a2.963,2.963,0,0,1-.146-0.882V166.1Zm39.829,22.858H300.106a3.078,3.078,0,0,1-.641-0.07l12.065-10.661,3.93,3.563a5.055,5.055,0,0,0,6.246.064l3.92-3.471,11.887,10.505A3.078,3.078,0,0,1,336.872,188.953Zm3.064-3.048a3,3,0,0,1-.146.882l-11.843-10.464L339.9,165.74a2.985,2.985,0,0,1,.036.355v19.81ZM272,168h16a1,1,0,0,1,1,1v1a1,1,0,0,1-1,1H272a1,1,0,0,1-1-1v-1A1,1,0,0,1,272,168Zm6,6h10a1,1,0,0,1,1,1v1a1,1,0,0,1-1,1H278a1,1,0,0,1-1-1v-1A1,1,0,0,1,278,174Zm6,6h4a1,1,0,0,1,1,1v1a1,1,0,0,1-1,1h-4a1,1,0,0,1-1-1v-1A1,1,0,0,1,284,180Z" transform="translate(-271 -160)"/>
</svg>
