<svg xmlns="http://www.w3.org/2000/svg" width="39" height="48" viewBox="0 0 39 48">
  <defs>
    <style>
      .cls-1 {
        fill: #669cd6;
        fill-rule: evenodd;
      }
    </style>
  </defs>
  <path id="clipboard" class="cls-1" d="M567.5,381h-18a1.5,1.5,0,0,0,0,3h18A1.5,1.5,0,0,0,567.5,381Zm6-28.5h-3a3,3,0,0,0-3-3H566V348a3,3,0,0,0-3-3h-9a3,3,0,0,0-3,3v1.5h-1.5a3,3,0,0,0-3,3h-3A4.5,4.5,0,0,0,539,357v31.5a4.5,4.5,0,0,0,4.5,4.5h30a4.5,4.5,0,0,0,4.5-4.5V357A4.5,4.5,0,0,0,573.5,352.5Zm-21.75,0H554V351a3,3,0,0,1,3-3h3a3,3,0,0,1,3,3v1.5h2.25a2.25,2.25,0,0,1,0,4.5h-13.5A2.25,2.25,0,0,1,551.75,352.5ZM575,387a3,3,0,0,1-3,3H545a3,3,0,0,1-3-3V358.5a3,3,0,0,1,3-3h1.5V357a3,3,0,0,0,3,3h18c1.823,0,2.471-1.561,2.935-3.044a4.5,4.5,0,0,0,.065-1.456H572a3,3,0,0,1,3,3V387Zm-7.5-13.5h-18a1.5,1.5,0,0,0,0,3h18A1.5,1.5,0,0,0,567.5,373.5Zm0-7.5h-18a1.5,1.5,0,0,0,0,3h18A1.5,1.5,0,0,0,567.5,366Z" transform="translate(-539 -345)"/>
</svg>
