<svg xmlns="http://www.w3.org/2000/svg" width="64" height="64" viewBox="0 0 64 64">
  <defs>
    <style>
      .cls-1 {
        fill: #adadad;
        fill-rule: evenodd;
      }
    </style>
  </defs>
  <path id="Check_copy_7" data-name="Check copy 7" class="cls-1" d="M63,3190a28.03,28.03,0,1,1-28,28,28.031,28.031,0,0,1,28-28m0-4a32,32,0,1,0,32,32,32,32,0,0,0-32-32h0Zm-4.56,43.46a2,2,0,0,1-2.828,0l-9.9-9.9a2,2,0,1,1,2.828-2.83l9.9,9.9A2,2,0,0,1,58.44,3229.46Zm-2.818-.07a2,2,0,0,0,2.828,0L78.6,3209.12a2,2,0,0,0-2.828-2.83l-20.15,20.28A1.99,1.99,0,0,0,55.622,3229.39Z" transform="translate(-31 -3186)"/>
</svg>
