<svg xmlns="http://www.w3.org/2000/svg" width="44" height="42" viewBox="0 0 44 42">
  <defs>
    <style>
      .cls-1 {
        fill: #fff;
        fill-rule: evenodd;
      }
    </style>
  </defs>
  <path id="Forma_1" data-name="Forma 1" class="cls-1" d="M486.055,1666H453.517a0.94,0.94,0,0,0-.945.93v18.6h-8.627a0.942,0.942,0,0,0-.945.94v15.86a5.711,5.711,0,0,0,5.731,5.67h32.538a5.711,5.711,0,0,0,5.731-5.67v-35.4A0.94,0.94,0,0,0,486.055,1666Zm-41.165,36.33V1687.4h7.682v14.93A3.841,3.841,0,0,1,444.89,1702.33Zm40.22,0a3.828,3.828,0,0,1-3.841,3.8H452.981a5.623,5.623,0,0,0,1.481-3.8v-34.46H485.11v34.46h0Zm-16.652-25.53h12.114a0.935,0.935,0,1,0,0-1.87H468.458A0.935,0.935,0,1,0,468.458,1676.8Zm0,10.28h12.114a0.935,0.935,0,1,0,0-1.87H468.458A0.935,0.935,0,1,0,468.458,1687.08Zm0,10.28h12.114a0.935,0.935,0,1,0,0-1.87H468.458A0.935,0.935,0,1,0,468.458,1697.36Zm-8.721-19.5a0.976,0.976,0,0,0,.687.29h0.008a0.944,0.944,0,0,0,.69-0.3l5.192-5.63a0.927,0.927,0,0,0-.061-1.32,0.942,0.942,0,0,0-1.335.06l-4.506,4.88-1.4-1.47a0.954,0.954,0,0,0-1.337-.04,0.927,0.927,0,0,0-.038,1.32Zm5.181,3.82-4.506,4.88-1.4-1.47a0.953,0.953,0,0,0-1.337-.03,0.926,0.926,0,0,0-.038,1.32l2.1,2.2a0.936,0.936,0,0,0,.687.29h0.008a0.944,0.944,0,0,0,.69-0.3l5.192-5.63a0.928,0.928,0,0,0-.061-1.32A0.952,0.952,0,0,0,464.918,1681.68Zm0,10.72-4.506,4.89-1.4-1.47a0.954,0.954,0,0,0-1.337-.04,0.927,0.927,0,0,0-.038,1.32l2.1,2.21a0.976,0.976,0,0,0,.687.29h0.008a0.917,0.917,0,0,0,.69-0.31l5.192-5.62a0.94,0.94,0,0,0-.061-1.33A0.961,0.961,0,0,0,464.918,1692.4Z" transform="translate(-443 -1666)"/>
</svg>
