<svg xmlns="http://www.w3.org/2000/svg" width="63.688" height="70.594" viewBox="0 0 63.688 70.594">
  <defs>
    <style>
      .cls-1 {
        fill: #dadada;
        fill-rule: evenodd;
      }
    </style>
  </defs>
  <path id="Forma_1" data-name="Forma 1" class="cls-1" d="M554.543,910.081a2.613,2.613,0,0,0-.194-3.688L551.7,904a31.872,31.872,0,1,0-29.929-15.856,2.611,2.611,0,1,0,4.522-2.611,26.621,26.621,0,1,1,25,13.259l2.512-2.79a2.612,2.612,0,0,0-3.882-3.5l-6.666,7.4a2.614,2.614,0,0,0-.321,3.054,2.646,2.646,0,0,0,.515.635l7.406,6.671A2.611,2.611,0,0,0,554.543,910.081ZM505,837h32v56H505V837Zm10-6h84v43H515V831Zm63.5,40a2.5,2.5,0,1,1-2.5,2.5A2.5,2.5,0,0,1,578.5,871Z" transform="translate(-517.5 -840.375)"/>
</svg>
