<svg xmlns="http://www.w3.org/2000/svg" width="52" height="42" viewBox="0 0 52 42">
  <defs>
    <style>
      .cls-232 {
        fill: #1292e3;
        fill-rule: evenodd;
      }
    </style>
  </defs>
  <path class="cls-232" d="M266,10434a20.916,20.916,0,0,1-6.127,1.6,10.373,10.373,0,0,0,4.689-5.8,22.474,22.474,0,0,1-6.773,2.6,10.652,10.652,0,0,0-18.454,7.2,10.852,10.852,0,0,0,.276,2.4,29.919,29.919,0,0,1-21.984-11.1,10.7,10.7,0,0,0-1.443,5.4,10.511,10.511,0,0,0,4.744,8.8,11.163,11.163,0,0,1-4.831-1.3v0.1a10.68,10.68,0,0,0,8.557,10.4,12.877,12.877,0,0,1-2.81.4,13.173,13.173,0,0,1-2.007-.2,10.518,10.518,0,0,0,9.964,7.3,20.444,20.444,0,0,1-15.794,4.4,30.417,30.417,0,0,0,16.352,4.8c19.62,0,30.349-16.2,30.349-30.2,0-.4-0.011-0.9-0.031-1.3A22.141,22.141,0,0,0,266,10434h0Z" transform="translate(-214 -10429)"/>
</svg>
