<svg xmlns="http://www.w3.org/2000/svg" width="42" height="42" viewBox="0 0 42 42">
  <defs>
    <style>
      .cls-1 {
        fill: #679cd6;
        fill-rule: evenodd;
      }
    </style>
  </defs>
  <path id="Clock" class="cls-1" d="M67,1479.62A18.4,18.4,0,1,1,48.625,1498,18.4,18.4,0,0,1,67,1479.62m0-2.62a21,21,0,1,0,21,21,21,21,0,0,0-21-21h0Zm0,6.56a1.314,1.314,0,0,1,1.313,1.31V1498a1.313,1.313,0,0,1-2.625,0v-13.13A1.313,1.313,0,0,1,67,1483.56Zm7.507,21.96a1.317,1.317,0,0,1-1.856,0l-6.5-6.5a1.31,1.31,0,1,1,1.856-1.85l6.5,6.49A1.317,1.317,0,0,1,74.508,1505.52Z" transform="translate(-46 -1477)"/>
</svg>
