<svg xmlns="http://www.w3.org/2000/svg" width="54" height="43" viewBox="0 0 54 43">
  <defs>
    <style>
      .cls-1 {
        fill: #fff;
        fill-rule: evenodd;
      }
    </style>
  </defs>
  <path id="Forma_1" data-name="Forma 1" class="cls-1" d="M172,1215.07a16.362,16.362,0,0,0,6.488-1.2,0.66,0.66,0,0,0,.383-0.19,3.008,3.008,0,0,0,1.925-2.48c0-2.52-4.532-3.88-8.8-3.88s-8.8,1.36-8.8,3.88S167.738,1215.07,172,1215.07Zm-1.013-1.38a1.055,1.055,0,0,0-.091-0.12l-4.13-4.1a11.686,11.686,0,0,1,2.049-.52l4.741,4.7q-0.739.06-1.556,0.06C171.654,1213.71,171.317,1213.7,170.989,1213.69Zm8.438-2.49a1.626,1.626,0,0,1-.935,1.14l-3.438-3.42C177.819,1209.38,179.427,1210.41,179.427,1211.2Zm-6.531-2.5,4.273,4.25a12.556,12.556,0,0,1-1.894.49,0.2,0.2,0,0,0-.011-0.02l-4.718-4.68c0.463-.04.948-0.05,1.456-0.05C172.308,1208.69,172.606,1208.69,172.9,1208.7Zm-7.439,1.4,3.383,3.35c-2.7-.46-4.262-1.47-4.262-2.25A1.532,1.532,0,0,1,165.457,1210.1Zm-6.631,16.31c4.264,0,8.8-1.35,8.8-3.87s-4.531-3.87-8.8-3.87-8.8,1.35-8.8,3.87S154.562,1226.41,158.826,1226.41Zm-4.784-2,2.749-2.2,2.847,2.83c-0.264.01-.535,0.01-0.812,0.01A16.425,16.425,0,0,1,154.042,1224.41Zm12.209-1.87c0,0.83-1.787,1.93-4.829,2.34l-1.215-1.2,3.5-2.98C165.339,1221.22,166.251,1221.94,166.251,1222.54Zm-4.179-2.24-2.837,2.41-2.586-2.57a21.018,21.018,0,0,1,2.177-.11A18.445,18.445,0,0,1,162.072,1220.3Zm-7.087.12,0.831,0.82-3.2,2.57,0.044,0.05a1.935,1.935,0,0,1-1.26-1.32C151.4,1221.83,152.706,1220.92,154.985,1220.42Zm31.083-5.07v-4.15a0.016,0.016,0,0,1,0-.01c0-4.03-6.318-7.19-14.065-7.19s-14.024,3.16-14.024,7.2h0v4.15c-7.44.17-12.973,3.26-12.973,7.19v17.05c0,4.04,6.071,7.41,13.821,7.41,6.258,0,11.189-2.13,12.945-5.05,1.756,2.92,7.15,5.03,13.408,5.03,7.75,0,13.821-3.35,13.821-7.39v-17.05C199,1218.61,193.507,1215.52,186.068,1215.35Zm11.317,7.19c0,3.17-5.458,5.68-12.206,5.68s-12.451-2.51-12.451-5.68,5.7-5.84,12.451-5.84S197.385,1219.37,197.385,1222.54Zm-14.093-7.14a7.974,7.974,0,0,0,1.161-1.02v0.97C184.061,1215.36,183.674,1215.38,183.292,1215.4ZM172,1220.32a7.044,7.044,0,0,0-1.886-1.99c0.616,0.05,1.245.07,1.886,0.07s1.271-.02,1.887-0.07A7.062,7.062,0,0,0,172,1220.32Zm0-14.68c6.749,0,12.451,2.39,12.451,5.56s-5.7,5.84-12.451,5.84-12.45-2.68-12.45-5.84S165.254,1205.64,172,1205.64Zm-11.289,9.76c-0.382-.02-0.769-0.04-1.161-0.05v-0.97A7.974,7.974,0,0,0,160.713,1215.4Zm-1.887,1.3c6.749,0,12.45,2.67,12.45,5.84s-5.7,5.68-12.45,5.68-12.152-2.51-12.152-5.68S152.077,1216.7,158.826,1216.7Zm0,28.6c-6.749,0-12.122-2.94-12.122-5.6v-13.39c2.217,2.4,6.574,3.64,12.122,3.64s9.842-1.24,12.058-3.64v13.39C170.884,1242.38,165.575,1245.3,158.826,1245.3Zm38.487-5.6c0,2.78-5.386,5.6-12.134,5.6s-12.608-3.05-12.608-5.6v-13.39c2.216,2.4,7.06,3.59,12.608,3.59s9.918-1.19,12.134-3.59v13.39h0Zm-20.93-17.16c0,2.52,4.532,3.87,8.8,3.87s8.795-1.35,8.795-3.87-4.532-3.87-8.795-3.87S176.383,1220.02,176.383,1222.54Zm16.22,0c0,1.05-2.824,2.51-7.424,2.51s-7.425-1.46-7.425-2.51,2.825-2.51,7.425-2.51S192.6,1221.49,192.6,1222.54Zm-12.081.01c0,1.36,2.918,1.57,4.657,1.57s4.656-.21,4.656-1.57-2.917-1.57-4.656-1.57S180.522,1221.18,180.522,1222.55Zm4.657,0.21a13.61,13.61,0,0,1-2.488-.21,14.838,14.838,0,0,1,4.975,0A13.606,13.606,0,0,1,185.179,1222.76Z" transform="translate(-145 -1204)"/>
</svg>
